<svg xmlns:xlink="http://www.w3.org/1999/xlink" xmlns="http://www.w3.org/2000/svg" class="svg-icon icon-tv-movies" width="39" height="32"><defs><symbol id="overview_icon_tv" xmlns="http://www.w3.org/2000/svg" x="0px" y="0px" width="39px" height="32px" viewBox="0 0 39 32">
        								<path class="st0" d="M3.7,30.8h31.9c1.7,0,2.8-1.1,2.8-2.8V4.2c0-1.7-1.1-2.8-2.8-2.8H3.7c-1.7,0-2.8,1.1-2.8,2.8V28
        							C0.9,29.8,1.9,30.8,3.7,30.8z M3.6,7.4C3.1,7.4,2.8,7,2.8,6.6V4.4c0-0.6,0.4-0.9,0.9-0.9h2.4c0.5,0,0.8,0.3,0.8,0.8v2.3
        							c0,0.4-0.3,0.8-0.8,0.8H3.6z M9.4,15.1c-0.5,0-0.8-0.3-0.8-0.8V4.2c0-0.5,0.3-0.8,0.8-0.8h20.5c0.5,0,0.8,0.3,0.8,0.8v10.2
        							c0,0.5-0.3,0.8-0.8,0.8L9.4,15.1z M33.2,7.4c-0.5,0-0.8-0.4-0.8-0.8V4.3c0-0.5,0.3-0.8,0.8-0.8h2.4c0.6,0,0.9,0.4,0.9,0.9v2.2
        							c0,0.4-0.3,0.8-0.8,0.8H33.2z M3.6,12.8c-0.5,0-0.8-0.4-0.8-0.8V9.7c0-0.5,0.3-0.8,0.8-0.8h2.5c0.5,0,0.8,0.3,0.8,0.8V12
        							c0,0.4-0.3,0.8-0.8,0.8L3.6,12.8z M33.2,12.8c-0.5,0-0.8-0.4-0.8-0.8V9.7c0-0.5,0.3-0.8,0.8-0.8h2.5c0.5,0,0.8,0.3,0.8,0.8V12
        							c0,0.4-0.3,0.8-0.8,0.8L33.2,12.8z M3.6,18c-0.5,0-0.8-0.3-0.8-0.8V15c0-0.5,0.3-0.8,0.8-0.8h2.5c0.5,0,0.8,0.3,0.8,0.8v2.2
        							c0,0.4-0.3,0.8-0.8,0.8H3.6z M33.2,18c-0.5,0-0.8-0.3-0.8-0.8V15c0-0.5,0.3-0.8,0.8-0.8h2.5c0.5,0,0.8,0.3,0.8,0.8v2.2
        							c0,0.4-0.3,0.8-0.8,0.8H33.2z M9.4,28.8c-0.5,0-0.8-0.3-0.8-0.8V17.9c0-0.5,0.3-0.8,0.8-0.8h20.5c0.5,0,0.8,0.3,0.8,0.8V28
        							c0,0.5-0.3,0.8-0.8,0.8H9.4z M3.6,23.4c-0.5,0-0.8-0.4-0.8-0.8v-2.2c0-0.5,0.3-0.8,0.8-0.8h2.5c0.5,0,0.8,0.3,0.8,0.8v2.2
        							c0,0.4-0.3,0.8-0.8,0.8H3.6z M33.2,23.4c-0.5,0-0.8-0.4-0.8-0.8v-2.2c0-0.5,0.3-0.8,0.8-0.8h2.5c0.5,0,0.8,0.3,0.8,0.8v2.2
        							c0,0.4-0.3,0.8-0.8,0.8H33.2z M3.7,28.8c-0.6,0-0.9-0.4-0.9-0.9v-2.2c0-0.5,0.3-0.8,0.8-0.8h2.5c0.5,0,0.8,0.3,0.8,0.8V28
        							c0,0.5-0.3,0.8-0.8,0.8H3.7z M33.2,28.8c-0.5,0-0.8-0.3-0.8-0.8v-2.3c0-0.5,0.3-0.8,0.8-0.8h2.5c0.5,0,0.8,0.3,0.8,0.8v2.2
        							c0,0.6-0.4,0.9-0.9,0.9H33.2z"></path>
        							</symbol></defs>
        													<g>
        								<path class="st0" d="M3.7,30.8h31.9c1.7,0,2.8-1.1,2.8-2.8V4.2c0-1.7-1.1-2.8-2.8-2.8H3.7c-1.7,0-2.8,1.1-2.8,2.8V28
        							C0.9,29.8,1.9,30.8,3.7,30.8z M3.6,7.4C3.1,7.4,2.8,7,2.8,6.6V4.4c0-0.6,0.4-0.9,0.9-0.9h2.4c0.5,0,0.8,0.3,0.8,0.8v2.3
        							c0,0.4-0.3,0.8-0.8,0.8H3.6z M9.4,15.1c-0.5,0-0.8-0.3-0.8-0.8V4.2c0-0.5,0.3-0.8,0.8-0.8h20.5c0.5,0,0.8,0.3,0.8,0.8v10.2
        							c0,0.5-0.3,0.8-0.8,0.8L9.4,15.1z M33.2,7.4c-0.5,0-0.8-0.4-0.8-0.8V4.3c0-0.5,0.3-0.8,0.8-0.8h2.4c0.6,0,0.9,0.4,0.9,0.9v2.2
        							c0,0.4-0.3,0.8-0.8,0.8H33.2z M3.6,12.8c-0.5,0-0.8-0.4-0.8-0.8V9.7c0-0.5,0.3-0.8,0.8-0.8h2.5c0.5,0,0.8,0.3,0.8,0.8V12
        							c0,0.4-0.3,0.8-0.8,0.8L3.6,12.8z M33.2,12.8c-0.5,0-0.8-0.4-0.8-0.8V9.7c0-0.5,0.3-0.8,0.8-0.8h2.5c0.5,0,0.8,0.3,0.8,0.8V12
        							c0,0.4-0.3,0.8-0.8,0.8L33.2,12.8z M3.6,18c-0.5,0-0.8-0.3-0.8-0.8V15c0-0.5,0.3-0.8,0.8-0.8h2.5c0.5,0,0.8,0.3,0.8,0.8v2.2
        							c0,0.4-0.3,0.8-0.8,0.8H3.6z M33.2,18c-0.5,0-0.8-0.3-0.8-0.8V15c0-0.5,0.3-0.8,0.8-0.8h2.5c0.5,0,0.8,0.3,0.8,0.8v2.2
        							c0,0.4-0.3,0.8-0.8,0.8H33.2z M9.4,28.8c-0.5,0-0.8-0.3-0.8-0.8V17.9c0-0.5,0.3-0.8,0.8-0.8h20.5c0.5,0,0.8,0.3,0.8,0.8V28
        							c0,0.5-0.3,0.8-0.8,0.8H9.4z M3.6,23.4c-0.5,0-0.8-0.4-0.8-0.8v-2.2c0-0.5,0.3-0.8,0.8-0.8h2.5c0.5,0,0.8,0.3,0.8,0.8v2.2
        							c0,0.4-0.3,0.8-0.8,0.8H3.6z M33.2,23.4c-0.5,0-0.8-0.4-0.8-0.8v-2.2c0-0.5,0.3-0.8,0.8-0.8h2.5c0.5,0,0.8,0.3,0.8,0.8v2.2
        							c0,0.4-0.3,0.8-0.8,0.8H33.2z M3.7,28.8c-0.6,0-0.9-0.4-0.9-0.9v-2.2c0-0.5,0.3-0.8,0.8-0.8h2.5c0.5,0,0.8,0.3,0.8,0.8V28
        							c0,0.5-0.3,0.8-0.8,0.8H3.7z M33.2,28.8c-0.5,0-0.8-0.3-0.8-0.8v-2.3c0-0.5,0.3-0.8,0.8-0.8h2.5c0.5,0,0.8,0.3,0.8,0.8v2.2
        							c0,0.6-0.4,0.9-0.9,0.9H33.2z"></path>
        							</g>
        												</svg>