<svg xmlns:xlink="http://www.w3.org/1999/xlink" xmlns="http://www.w3.org/2000/svg" class="svg-icon icon-smart-home" width="44" height="40"><defs><symbol id="overview_icon_home" xmlns="http://www.w3.org/2000/svg" x="0px" y="0px" width="44px" height="40px" viewBox="0 0 44 40">
        								<path class="st0" d="M9.5,39.4h25c2.5,0,3.9-1.4,3.9-3.9V16.7l2.9,2.5c0.3,0.2,0.6,0.5,1,0.5c0.7,0,1.2-0.4,1.2-1.1
        									c0-0.4-0.1-0.7-0.5-1l-4.6-3.9V5.8c0-0.7-0.4-1.1-1.1-1.1h-1.7c-0.6,0-1.1,0.4-1.1,1.1v4.4L24,1.4c-1.2-1.1-2.7-1.1-4,0l-19,16.1
        									c-0.3,0.3-0.5,0.6-0.5,1c0,0.6,0.5,1.1,1.2,1.1c0.4,0,0.7-0.2,1-0.5l2.8-2.4v18.7C5.6,38,7,39.4,9.5,39.4z M27.2,24
        									c0-0.8-0.5-1.3-1.3-1.3H18c-0.8,0-1.3,0.5-1.3,1.3v13H9.9c-1.4,0-2-0.7-2-2.1V14.9L21.3,3.5c0.5-0.4,1-0.4,1.5,0L36,14.8V35
        									c0,1.4-0.7,2.1-2,2.1h-6.7L27.2,24z"></path>
        							</symbol></defs>
        													<g>
        								<path class="st0" d="M9.5,39.4h25c2.5,0,3.9-1.4,3.9-3.9V16.7l2.9,2.5c0.3,0.2,0.6,0.5,1,0.5c0.7,0,1.2-0.4,1.2-1.1
        									c0-0.4-0.1-0.7-0.5-1l-4.6-3.9V5.8c0-0.7-0.4-1.1-1.1-1.1h-1.7c-0.6,0-1.1,0.4-1.1,1.1v4.4L24,1.4c-1.2-1.1-2.7-1.1-4,0l-19,16.1
        									c-0.3,0.3-0.5,0.6-0.5,1c0,0.6,0.5,1.1,1.2,1.1c0.4,0,0.7-0.2,1-0.5l2.8-2.4v18.7C5.6,38,7,39.4,9.5,39.4z M27.2,24
        									c0-0.8-0.5-1.3-1.3-1.3H18c-0.8,0-1.3,0.5-1.3,1.3v13H9.9c-1.4,0-2-0.7-2-2.1V14.9L21.3,3.5c0.5-0.4,1-0.4,1.5,0L36,14.8V35
        									c0,1.4-0.7,2.1-2,2.1h-6.7L27.2,24z"></path>
        							</g>
        												</svg>