<svg xmlns:xlink="http://www.w3.org/1999/xlink" xmlns="http://www.w3.org/2000/svg" class="svg-icon icon-navigation-maps" width="34" height="34"><defs><symbol id="overview_icon_navigation" xmlns="http://www.w3.org/2000/svg" x="0px" y="0px" width="34px" height="34px" viewBox="0 0 34 34">
        								<path class="st0" d="M1.6,33.2c0.4,0,0.7-0.1,1.2-0.4l8.7-4.8l9.2,5.4c0.6,0.3,1.2,0.5,1.7,0.5c0.5,0,1.1-0.2,1.6-0.5l8.7-5.1
        							c0.9-0.5,1.2-1.1,1.2-2.1V3.3c0-1.1-0.6-1.7-1.6-1.7c-0.4,0-0.7,0.1-1.2,0.4l-8.9,5l-9-5.6c-0.5-0.3-1.1-0.5-1.7-0.5
        							C11,0.9,10.4,1,9.8,1.4L1.2,6.4C0.4,6.9,0,7.5,0,8.6v22.9C0,32.6,0.6,33.2,1.6,33.2z M10.6,25.9l-8,4.5c-0.1,0.1-0.2,0.1-0.3,0.1
        							c-0.2,0-0.3-0.1-0.3-0.3V9.1c0-0.4,0.1-0.7,0.5-1l7.4-4.4c0.2-0.1,0.4-0.2,0.6-0.3V25.9z M12.7,26.1V3.6c0.2,0.1,0.4,0.2,0.5,0.3
        							l8,4.9v22.3c-0.2-0.1-0.5-0.2-0.7-0.3L12.7,26.1z M23.4,31.3V8.7l8-4.4c0.1-0.1,0.2-0.1,0.3-0.1c0.2,0,0.3,0.1,0.3,0.3v21.1
        							c0,0.4-0.2,0.7-0.5,1L24.1,31C23.8,31.1,23.6,31.2,23.4,31.3z"></path>
        							</symbol></defs>
        													<g>
        								<path class="st0" d="M1.6,33.2c0.4,0,0.7-0.1,1.2-0.4l8.7-4.8l9.2,5.4c0.6,0.3,1.2,0.5,1.7,0.5c0.5,0,1.1-0.2,1.6-0.5l8.7-5.1
        							c0.9-0.5,1.2-1.1,1.2-2.1V3.3c0-1.1-0.6-1.7-1.6-1.7c-0.4,0-0.7,0.1-1.2,0.4l-8.9,5l-9-5.6c-0.5-0.3-1.1-0.5-1.7-0.5
        							C11,0.9,10.4,1,9.8,1.4L1.2,6.4C0.4,6.9,0,7.5,0,8.6v22.9C0,32.6,0.6,33.2,1.6,33.2z M10.6,25.9l-8,4.5c-0.1,0.1-0.2,0.1-0.3,0.1
        							c-0.2,0-0.3-0.1-0.3-0.3V9.1c0-0.4,0.1-0.7,0.5-1l7.4-4.4c0.2-0.1,0.4-0.2,0.6-0.3V25.9z M12.7,26.1V3.6c0.2,0.1,0.4,0.2,0.5,0.3
        							l8,4.9v22.3c-0.2-0.1-0.5-0.2-0.7-0.3L12.7,26.1z M23.4,31.3V8.7l8-4.4c0.1-0.1,0.2-0.1,0.3-0.1c0.2,0,0.3,0.1,0.3,0.3v21.1
        							c0,0.4-0.2,0.7-0.5,1L24.1,31C23.8,31.1,23.6,31.2,23.4,31.3z"></path>
        							</g>
        												</svg>