<svg xmlns:xlink="http://www.w3.org/1999/xlink" xmlns="http://www.w3.org/2000/svg" class="svg-icon icon-all" width="44" height="29"><defs><symbol id="overview_icon_all" width="44px" height="29px" viewBox="0 0 44 29">
        								<linearGradient id="allGradient" gradientUnits="userSpaceOnUse" x1="-908.716" y1="530.1072" x2="-907.1624" y2="529.3255" gradientTransform="matrix(33 0 0 -21.75 29984.5 11535.375)">
        									<stop offset="0" style="stop-color:#D400A5"></stop>
        									<stop offset="0.5206" style="stop-color:#1E76C9"></stop>
        									<stop offset="1" style="stop-color:#35FCED"></stop>
        								</linearGradient>
        								<path class="st0" d="M4.6,12.64h6.77c1.6,0,2.4-0.79,2.4-2.49V3.33c0-1.72-0.81-2.51-2.4-2.51H4.6c-1.58,0-2.4,0.79-2.4,2.51v6.82
        								C2.2,11.85,3.02,12.64,4.6,12.64z M18.62,12.64h6.76c1.6,0,2.42-0.79,2.42-2.49V3.33c0-1.72-0.82-2.51-2.42-2.51h-6.76
        								c-1.6,0-2.42,0.79-2.42,2.51v6.82C16.21,11.85,17.03,12.64,18.62,12.64z M32.63,12.64h6.76c1.6,0,2.42-0.79,2.42-2.49V3.33
        								c0-1.72-0.82-2.51-2.42-2.51h-6.76c-1.6,0-2.4,0.79-2.4,2.51v6.82C30.23,11.85,31.03,12.64,32.63,12.64z M4.6,26.92h6.77
        								c1.6,0,2.4-0.79,2.4-2.49v-6.82c0-1.7-0.81-2.49-2.4-2.49H4.6c-1.58,0-2.4,0.79-2.4,2.49v6.82C2.2,26.13,3.02,26.92,4.6,26.92z
        								M18.62,26.92h6.76c1.6,0,2.42-0.79,2.42-2.49v-6.82c0-1.7-0.82-2.49-2.42-2.49h-6.76c-1.6,0-2.42,0.79-2.42,2.49v6.82
        								C16.21,26.13,17.03,26.92,18.62,26.92z M32.63,26.92h6.76c1.6,0,2.42-0.79,2.42-2.49v-6.82c0-1.7-0.82-2.49-2.42-2.49h-6.76
        								c-1.6,0-2.4,0.79-2.4,2.49v6.82C30.23,26.13,31.03,26.92,32.63,26.92z"></path>
        							</symbol></defs>
        													<g>
        								<lineargradient id="allGradient" gradientunits="userSpaceOnUse" x1="-908.716" y1="530.1072" x2="-907.1624" y2="529.3255" gradienttransform="matrix(33 0 0 -21.75 29984.5 11535.375)">
        									<stop offset="0" style="stop-color:#D400A5"></stop>
        									<stop offset="0.5206" style="stop-color:#1E76C9"></stop>
        									<stop offset="1" style="stop-color:#35FCED"></stop>
        								</lineargradient>
        								<path class="st0" d="M4.6,12.64h6.77c1.6,0,2.4-0.79,2.4-2.49V3.33c0-1.72-0.81-2.51-2.4-2.51H4.6c-1.58,0-2.4,0.79-2.4,2.51v6.82
        								C2.2,11.85,3.02,12.64,4.6,12.64z M18.62,12.64h6.76c1.6,0,2.42-0.79,2.42-2.49V3.33c0-1.72-0.82-2.51-2.42-2.51h-6.76
        								c-1.6,0-2.42,0.79-2.42,2.51v6.82C16.21,11.85,17.03,12.64,18.62,12.64z M32.63,12.64h6.76c1.6,0,2.42-0.79,2.42-2.49V3.33
        								c0-1.72-0.82-2.51-2.42-2.51h-6.76c-1.6,0-2.4,0.79-2.4,2.51v6.82C30.23,11.85,31.03,12.64,32.63,12.64z M4.6,26.92h6.77
        								c1.6,0,2.4-0.79,2.4-2.49v-6.82c0-1.7-0.81-2.49-2.4-2.49H4.6c-1.58,0-2.4,0.79-2.4,2.49v6.82C2.2,26.13,3.02,26.92,4.6,26.92z
        								M18.62,26.92h6.76c1.6,0,2.42-0.79,2.42-2.49v-6.82c0-1.7-0.82-2.49-2.42-2.49h-6.76c-1.6,0-2.42,0.79-2.42,2.49v6.82
        								C16.21,26.13,17.03,26.92,18.62,26.92z M32.63,26.92h6.76c1.6,0,2.42-0.79,2.42-2.49v-6.82c0-1.7-0.82-2.49-2.42-2.49h-6.76
        								c-1.6,0-2.4,0.79-2.4,2.49v6.82C30.23,26.13,31.03,26.92,32.63,26.92z"></path>
        							</g>
        												</svg>