<svg xmlns:xlink="http://www.w3.org/1999/xlink" xmlns="http://www.w3.org/2000/svg" class="svg-icon icon-sports" width="52" height="35"><defs><symbol id="overview_icon_sports" xmlns="http://www.w3.org/2000/svg" x="0px" y="0px" width="52px" height="35px" viewBox="0 0 52 35">
        								<path d="M34.4,31.6L18.6,4.2c-0.5-0.9-1.3-1.2-2.2-1.1c-0.9,0.1-2.1,0.6-3.1,1.2c-3.6,2.1-5,5.3-8.6,7.4
        							c-1.6,0.9-2.9,1.2-3.6,1.6c-0.6,0.4-0.9,1-0.5,1.6l6,10.4c0.5,0.9,1.3,1.2,2.2,1.1c0.9-0.1,2-0.6,3.1-1.2c3.6-2.1,5-5.3,8.6-7.4
        							c1.3-0.8,2.5-1.1,3.2-1.4l9.2,16c0.2,0.4,0.7,0.6,1.2,0.3C34.4,32.5,34.6,32,34.4,31.6z M26.9,15.5l1,1.7l0.4-0.8
        							c0.7,0.2,1.9,0.6,3.2,1.4c3.6,2.1,5,5.3,8.6,7.4c1,0.6,2.2,1.1,3.1,1.2c0.9,0.1,1.7-0.2,2.2-1.1l6-10.4c0.4-0.7,0.1-1.3-0.5-1.6
        							c-0.6-0.4-2-0.7-3.6-1.6c-3.6-2.1-5-5.3-8.6-7.4c-1-0.6-2.2-1.1-3.1-1.2c-0.9-0.1-1.7,0.2-2.2,1.1L26.9,15.5z M29.3,14.9l5.8-10
        							c1.1,0,2.4,0.7,2.8,1c3.5,2,4.8,5.2,8.6,7.4c0.8,0.5,1.9,1.1,3.1,1.4l-5.8,10c-1.1,0-2.4-0.7-2.8-1c-3.5-2-4.8-5.2-8.6-7.4
        							C31.6,15.8,30.5,15.3,29.3,14.9z M25.1,22.1l-1-1.7l-6.5,11.2c-0.2,0.4-0.1,0.9,0.3,1.2c0.4,0.2,0.9,0.1,1.2-0.3L25.1,22.1z"></path>
        							</symbol></defs>
        													<g>
        								<path d="M34.4,31.6L18.6,4.2c-0.5-0.9-1.3-1.2-2.2-1.1c-0.9,0.1-2.1,0.6-3.1,1.2c-3.6,2.1-5,5.3-8.6,7.4
        							c-1.6,0.9-2.9,1.2-3.6,1.6c-0.6,0.4-0.9,1-0.5,1.6l6,10.4c0.5,0.9,1.3,1.2,2.2,1.1c0.9-0.1,2-0.6,3.1-1.2c3.6-2.1,5-5.3,8.6-7.4
        							c1.3-0.8,2.5-1.1,3.2-1.4l9.2,16c0.2,0.4,0.7,0.6,1.2,0.3C34.4,32.5,34.6,32,34.4,31.6z M26.9,15.5l1,1.7l0.4-0.8
        							c0.7,0.2,1.9,0.6,3.2,1.4c3.6,2.1,5,5.3,8.6,7.4c1,0.6,2.2,1.1,3.1,1.2c0.9,0.1,1.7-0.2,2.2-1.1l6-10.4c0.4-0.7,0.1-1.3-0.5-1.6
        							c-0.6-0.4-2-0.7-3.6-1.6c-3.6-2.1-5-5.3-8.6-7.4c-1-0.6-2.2-1.1-3.1-1.2c-0.9-0.1-1.7,0.2-2.2,1.1L26.9,15.5z M29.3,14.9l5.8-10
        							c1.1,0,2.4,0.7,2.8,1c3.5,2,4.8,5.2,8.6,7.4c0.8,0.5,1.9,1.1,3.1,1.4l-5.8,10c-1.1,0-2.4-0.7-2.8-1c-3.5-2-4.8-5.2-8.6-7.4
        							C31.6,15.8,30.5,15.3,29.3,14.9z M25.1,22.1l-1-1.7l-6.5,11.2c-0.2,0.4-0.1,0.9,0.3,1.2c0.4,0.2,0.9,0.1,1.2-0.3L25.1,22.1z"></path>
        							</g>
        												</svg>