<svg xmlns:xlink="http://www.w3.org/1999/xlink" xmlns="http://www.w3.org/2000/svg" class="svg-icon icon-everyday-tasks" width="37" height="34"><defs><symbol id="overview_icon_tasks" xmlns="http://www.w3.org/2000/svg" x="0px" y="0px" width="37px" height="34px" viewBox="0 0 37 34">
        								<path class="st0" d="M7.5,14c3.7,0,6.9-3,6.9-6.7c0-3.7-3.1-6.7-6.9-6.7c-3.8,0-6.9,3-6.9,6.7C0.6,11,3.8,14,7.5,14z M6.7,11
        									c-0.3,0-0.5-0.1-0.7-0.4L4,8.4C3.9,8.3,3.8,8.1,3.8,7.9c0-0.4,0.3-0.7,0.7-0.7c0.3,0,0.5,0.1,0.6,0.3l1.5,1.7l3.1-4.8
        									C9.9,4.2,10.2,4,10.4,4c0.4,0,0.7,0.3,0.7,0.7c0,0.2-0.1,0.3-0.2,0.6l-3.5,5.4C7.2,10.9,7,11.1,6.7,11z M19.1,8.3h16.6
        									c0.5,0,1-0.4,1-0.9c0-0.5-0.4-0.9-1-0.9H19.1c-0.5,0-0.9,0.4-0.9,0.9S18.5,8.3,19.1,8.3z M7.5,32.6c3.7,0,6.9-3,6.9-6.7
        									c0-3.7-3.1-6.7-6.9-6.7c-3.8,0-6.9,3-6.9,6.7C0.6,29.5,3.8,32.6,7.5,32.6z M7.5,30.7c-2.7,0-5-2.2-5-4.9c0-2.7,2.3-4.9,5-4.9
        									c2.7,0,5,2.2,5,4.9S10.2,30.7,7.5,30.7z M19.1,26.8h16.6c0.5,0,1-0.4,1-0.9c0-0.5-0.4-0.9-1-0.9H19.1c-0.5,0-0.9,0.4-0.9,0.9
        									C18.1,26.4,18.5,26.8,19.1,26.8z"></path>
        							</symbol></defs>
        													<g>
        								<path class="st0" d="M7.5,14c3.7,0,6.9-3,6.9-6.7c0-3.7-3.1-6.7-6.9-6.7c-3.8,0-6.9,3-6.9,6.7C0.6,11,3.8,14,7.5,14z M6.7,11
        									c-0.3,0-0.5-0.1-0.7-0.4L4,8.4C3.9,8.3,3.8,8.1,3.8,7.9c0-0.4,0.3-0.7,0.7-0.7c0.3,0,0.5,0.1,0.6,0.3l1.5,1.7l3.1-4.8
        									C9.9,4.2,10.2,4,10.4,4c0.4,0,0.7,0.3,0.7,0.7c0,0.2-0.1,0.3-0.2,0.6l-3.5,5.4C7.2,10.9,7,11.1,6.7,11z M19.1,8.3h16.6
        									c0.5,0,1-0.4,1-0.9c0-0.5-0.4-0.9-1-0.9H19.1c-0.5,0-0.9,0.4-0.9,0.9S18.5,8.3,19.1,8.3z M7.5,32.6c3.7,0,6.9-3,6.9-6.7
        									c0-3.7-3.1-6.7-6.9-6.7c-3.8,0-6.9,3-6.9,6.7C0.6,29.5,3.8,32.6,7.5,32.6z M7.5,30.7c-2.7,0-5-2.2-5-4.9c0-2.7,2.3-4.9,5-4.9
        									c2.7,0,5,2.2,5,4.9S10.2,30.7,7.5,30.7z M19.1,26.8h16.6c0.5,0,1-0.4,1-0.9c0-0.5-0.4-0.9-1-0.9H19.1c-0.5,0-0.9,0.4-0.9,0.9
        									C18.1,26.4,18.5,26.8,19.1,26.8z"></path>
        							</g>
        												</svg>