<svg
  xmlns:xlink="http://www.w3.org/1999/xlink"
  xmlns="http://www.w3.org/2000/svg"
  class="svg-icon icon-calls-texts"
  width="19"
  height="32"
  ><defs
    ><symbol
      id="overview_icon_phone"
      height="32"
      viewBox="0 0 19 32"
      width="19"
      xmlns="http://www.w3.org/2000/svg"
    >
      <path
        d="m4.1 32h10.8c2.5 0 4-1.5 4-3.9v-24.2c0-2.4-1.5-3.9-4-3.9h-10.8c-2.5 0-4 1.5-4 3.9v24.2c0 2.4 1.5 3.9 4 3.9zm.2-1.9c-1.6 0-2.3-.8-2.3-2.3v-23.6c0-1.5.8-2.3 2.3-2.3h1.9c.2 0 .3.1.3.3v.3c0 .6.4 1 1 1h4c.6 0 1-.4 1-1v-.2c0-.2.1-.3.3-.3h1.9c1.6 0 2.3.8 2.3 2.3v23.6c0 1.5-.8 2.3-2.3 2.3h-10.4zm2-1.1h6.4c.3 0 .6-.2.6-.6s-.3-.6-.6-.6h-6.4c-.4 0-.6.2-.6.6 0 .3.2.6.6.6z"
      ></path>
    </symbol></defs
  >
  <g>
    <path
      d="m4.1 32h10.8c2.5 0 4-1.5 4-3.9v-24.2c0-2.4-1.5-3.9-4-3.9h-10.8c-2.5 0-4 1.5-4 3.9v24.2c0 2.4 1.5 3.9 4 3.9zm.2-1.9c-1.6 0-2.3-.8-2.3-2.3v-23.6c0-1.5.8-2.3 2.3-2.3h1.9c.2 0 .3.1.3.3v.3c0 .6.4 1 1 1h4c.6 0 1-.4 1-1v-.2c0-.2.1-.3.3-.3h1.9c1.6 0 2.3.8 2.3 2.3v23.6c0 1.5-.8 2.3-2.3 2.3h-10.4zm2-1.1h6.4c.3 0 .6-.2.6-.6s-.3-.6-.6-.6h-6.4c-.4 0-.6.2-.6.6 0 .3.2.6.6.6z"
    ></path>
  </g>
</svg>
