<svg xmlns:xlink="http://www.w3.org/1999/xlink" xmlns="http://www.w3.org/2000/svg" class="svg-icon icon-music-podcasts" width="34" height="35"><defs><symbol id="overview_icon_music" xmlns="http://www.w3.org/2000/svg" x="0px" y="0px" width="34px" height="35px" viewBox="0 0 34 35">
        								<path class="st0" d="M0,18.3c0,4.9,1.5,10.4,4,14.6c0.3,0.5,0.8,0.6,1.2,0.5c0.7,1.1,1.9,1.5,3.4,1.1c1.8-0.5,2.6-2,2-3.7l-2.5-8.1
        							c-0.5-1.7-2-2.5-3.8-2c-0.8,0.2-1.5,0.7-1.8,1.3c-0.2-1.2-0.3-2.5-0.3-3.7C2.2,8.9,8.1,2.6,17,2.6c8.9,0,14.8,6.3,14.8,15.6
        							c0,1.2-0.1,2.4-0.3,3.7c-0.4-0.6-1-1-1.8-1.3c-1.8-0.5-3.3,0.3-3.8,2l-2.5,8.1c-0.5,1.7,0.3,3.2,2,3.7c1.4,0.4,2.7,0,3.4-1.1
        							c0.5,0.1,1,0,1.2-0.5c2.5-4.2,4-9.7,4-14.6C34,7.5,27.3,0.5,17,0.5C6.7,0.5,0,7.5,0,18.3z"></path>
        							</symbol></defs>
        													<g>
        								<path class="st0" d="M0,18.3c0,4.9,1.5,10.4,4,14.6c0.3,0.5,0.8,0.6,1.2,0.5c0.7,1.1,1.9,1.5,3.4,1.1c1.8-0.5,2.6-2,2-3.7l-2.5-8.1
        							c-0.5-1.7-2-2.5-3.8-2c-0.8,0.2-1.5,0.7-1.8,1.3c-0.2-1.2-0.3-2.5-0.3-3.7C2.2,8.9,8.1,2.6,17,2.6c8.9,0,14.8,6.3,14.8,15.6
        							c0,1.2-0.1,2.4-0.3,3.7c-0.4-0.6-1-1-1.8-1.3c-1.8-0.5-3.3,0.3-3.8,2l-2.5,8.1c-0.5,1.7,0.3,3.2,2,3.7c1.4,0.4,2.7,0,3.4-1.1
        							c0.5,0.1,1,0,1.2-0.5c2.5-4.2,4-9.7,4-14.6C34,7.5,27.3,0.5,17,0.5C6.7,0.5,0,7.5,0,18.3z"></path>
        							</g>
        												</svg>