<svg xmlns:xlink="http://www.w3.org/1999/xlink" xmlns="http://www.w3.org/2000/svg" class="svg-icon icon-knowledge" width="33" height="41"><defs><symbol id="overview_icon_knowledge" x="0px" y="0px" width="33px" height="41px" viewBox="0 0 33 41">
        								<path class="st0" d="M19.1,40.9c6,0,9.6-2.2,9.6-5.7v-8.9C31.4,24,33,20.2,33,16c0-9.6-6-16-15.1-16c-9,0-15,6.2-15,15.6
        									c0,0.6,0,1.1,0.1,1.6l-2.2,4C0.3,22.3,0,23.2,0,24c0,1.7,1.1,3.1,2.9,3.4v3.6c0,2.8,1.8,4.2,4.3,3.9l2.3-0.3v0.4
        									C9.6,38.7,13.2,40.9,19.1,40.9z M19.1,38.9c-4.7,0-7.7-1.6-7.7-4.1v-1.9c0-0.2-0.1-0.4-0.4-0.3L7,33c-1.4,0.2-2.2-0.5-2.2-2.1V26
        									c0-0.2-0.1-0.3-0.3-0.3H4c-1.3,0-2-0.7-2-1.8c0-0.5,0.2-1.1,0.5-1.7L5,17.7c-0.1-0.7-0.1-1.4-0.1-2C4.8,7.5,10.1,2,17.9,2
        									c7.9,0,13.1,5.6,13.1,14c0,4-1.6,7.5-4.2,9.3l0,9.5C26.8,37.3,23.9,38.9,19.1,38.9z M7.4,13c0,3,2,5.1,5.1,5.1c0.4,0,0.8,0,1.2-0.1
        									c1,1,2.4,1.5,4,1.5c0.5,0,1.2-0.1,1.7-0.2c0.6,0.7,1.6,1,2.7,1h0.5c0.2,1.8,1.2,2.9,2.5,2.9c1.8,0,3-2.2,3-5.5c0-0.7,0-1.3-0.1-1.9
        									c0.7-0.7,1-1.7,1-2.9c0-2.2-1.4-3.8-3.5-4.3c-0.4-1.9-2-3.3-3.9-3.3c-0.2,0-0.5,0-0.8,0.1c-0.6-0.9-1.7-1.4-2.9-1.4
        									c-1.3,0-2.3,0.5-3.1,1.3c-0.5-0.3-1.2-0.4-1.8-0.4c-2.1,0-3.7,1.5-3.7,3.5v0.1C8.3,9.6,7.4,11.3,7.4,13z M13.9,8.3
        									c0,0.4,0.3,0.7,0.7,0.7c0.4,0,0.7-0.3,0.7-0.7c0.1-1.7,1.2-2.8,2.9-2.8c0.9,0,1.7,0.5,2,1.3c0.1,0.2,0.3,0.2,0.6,0.1
        									c0.3-0.1,0.6-0.1,0.9-0.1c1.6,0,2.8,1.2,2.8,2.9c0,4-5.6,3.4-5.6,7.5c0,0.2,0,0.5,0.1,0.7c-0.3,0.1-0.7,0.1-1,0.1
        									c-0.9,0-1.8-0.3-2.5-0.7c1.4-0.8,2.2-2.1,2.2-3.9c0-0.1,0-0.2,0-0.4c1.7-0.5,2.6-1.8,2.6-3.7c0-0.4-0.3-0.7-0.7-0.7
        									c-0.4,0-0.7,0.3-0.7,0.7c0,1.3-0.5,2-1.6,2.4c-0.2-0.4-0.4-0.8-0.7-1c-0.2-0.2-0.4-0.3-0.7-0.3c-0.4,0-0.7,0.3-0.7,0.6
        									c0,0.4,0.2,0.5,0.5,0.8c0.4,0.4,0.6,1,0.6,1.6c0,1.9-1.5,3.2-3.7,3.2c-2.3,0-3.8-1.5-3.8-3.7c0-1,0.4-2.1,1.1-2.8
        									c0.5,1,1.6,1.7,3,1.7c0.4,0,0.7-0.3,0.7-0.7c0-0.4-0.3-0.7-0.7-0.7c-1.2,0-2-0.8-2-1.9c0-1.2,1-2.1,2.3-2.1c0.4,0,0.7,0.1,1.1,0.2
        									C14,7.1,13.9,7.7,13.9,8.3z M23.8,16.6c0,0.4,0.3,0.7,0.6,0.7c0.9,0,1.7-0.1,2.4-0.4c0,0.3,0,0.6,0,0.9c0,2.4-0.7,4.1-1.7,4.1
        									c-0.8,0-1.4-1-1.4-2.5c0-0.2-0.2-0.3-0.4-0.3c-0.2,0-0.6,0-0.8,0c-1.6,0-2.5-0.6-2.5-1.8c0-3.1,5.4-2.4,5.6-7.1
        									c1.3,0.3,2.1,1.4,2.1,2.8c0,1.8-1.3,3-3.3,2.9C24.1,15.8,23.8,16.2,23.8,16.6z"></path>
        							</symbol></defs>
        													<g>
        								<path class="st0" d="M19.1,40.9c6,0,9.6-2.2,9.6-5.7v-8.9C31.4,24,33,20.2,33,16c0-9.6-6-16-15.1-16c-9,0-15,6.2-15,15.6
        									c0,0.6,0,1.1,0.1,1.6l-2.2,4C0.3,22.3,0,23.2,0,24c0,1.7,1.1,3.1,2.9,3.4v3.6c0,2.8,1.8,4.2,4.3,3.9l2.3-0.3v0.4
        									C9.6,38.7,13.2,40.9,19.1,40.9z M19.1,38.9c-4.7,0-7.7-1.6-7.7-4.1v-1.9c0-0.2-0.1-0.4-0.4-0.3L7,33c-1.4,0.2-2.2-0.5-2.2-2.1V26
        									c0-0.2-0.1-0.3-0.3-0.3H4c-1.3,0-2-0.7-2-1.8c0-0.5,0.2-1.1,0.5-1.7L5,17.7c-0.1-0.7-0.1-1.4-0.1-2C4.8,7.5,10.1,2,17.9,2
        									c7.9,0,13.1,5.6,13.1,14c0,4-1.6,7.5-4.2,9.3l0,9.5C26.8,37.3,23.9,38.9,19.1,38.9z M7.4,13c0,3,2,5.1,5.1,5.1c0.4,0,0.8,0,1.2-0.1
        									c1,1,2.4,1.5,4,1.5c0.5,0,1.2-0.1,1.7-0.2c0.6,0.7,1.6,1,2.7,1h0.5c0.2,1.8,1.2,2.9,2.5,2.9c1.8,0,3-2.2,3-5.5c0-0.7,0-1.3-0.1-1.9
        									c0.7-0.7,1-1.7,1-2.9c0-2.2-1.4-3.8-3.5-4.3c-0.4-1.9-2-3.3-3.9-3.3c-0.2,0-0.5,0-0.8,0.1c-0.6-0.9-1.7-1.4-2.9-1.4
        									c-1.3,0-2.3,0.5-3.1,1.3c-0.5-0.3-1.2-0.4-1.8-0.4c-2.1,0-3.7,1.5-3.7,3.5v0.1C8.3,9.6,7.4,11.3,7.4,13z M13.9,8.3
        									c0,0.4,0.3,0.7,0.7,0.7c0.4,0,0.7-0.3,0.7-0.7c0.1-1.7,1.2-2.8,2.9-2.8c0.9,0,1.7,0.5,2,1.3c0.1,0.2,0.3,0.2,0.6,0.1
        									c0.3-0.1,0.6-0.1,0.9-0.1c1.6,0,2.8,1.2,2.8,2.9c0,4-5.6,3.4-5.6,7.5c0,0.2,0,0.5,0.1,0.7c-0.3,0.1-0.7,0.1-1,0.1
        									c-0.9,0-1.8-0.3-2.5-0.7c1.4-0.8,2.2-2.1,2.2-3.9c0-0.1,0-0.2,0-0.4c1.7-0.5,2.6-1.8,2.6-3.7c0-0.4-0.3-0.7-0.7-0.7
        									c-0.4,0-0.7,0.3-0.7,0.7c0,1.3-0.5,2-1.6,2.4c-0.2-0.4-0.4-0.8-0.7-1c-0.2-0.2-0.4-0.3-0.7-0.3c-0.4,0-0.7,0.3-0.7,0.6
        									c0,0.4,0.2,0.5,0.5,0.8c0.4,0.4,0.6,1,0.6,1.6c0,1.9-1.5,3.2-3.7,3.2c-2.3,0-3.8-1.5-3.8-3.7c0-1,0.4-2.1,1.1-2.8
        									c0.5,1,1.6,1.7,3,1.7c0.4,0,0.7-0.3,0.7-0.7c0-0.4-0.3-0.7-0.7-0.7c-1.2,0-2-0.8-2-1.9c0-1.2,1-2.1,2.3-2.1c0.4,0,0.7,0.1,1.1,0.2
        									C14,7.1,13.9,7.7,13.9,8.3z M23.8,16.6c0,0.4,0.3,0.7,0.6,0.7c0.9,0,1.7-0.1,2.4-0.4c0,0.3,0,0.6,0,0.9c0,2.4-0.7,4.1-1.7,4.1
        									c-0.8,0-1.4-1-1.4-2.5c0-0.2-0.2-0.3-0.4-0.3c-0.2,0-0.6,0-0.8,0c-1.6,0-2.5-0.6-2.5-1.8c0-3.1,5.4-2.4,5.6-7.1
        									c1.3,0.3,2.1,1.4,2.1,2.8c0,1.8-1.3,3-3.3,2.9C24.1,15.8,23.8,16.2,23.8,16.6z"></path>
        							</g>
        												</svg>